<svg xmlns="http://www.w3.org/2000/svg" viewBox="0 0 274.64 74.53"><defs><style>.cls-1,.cls-2{fill:#fff;}.cls-1{fill-rule:evenodd;}</style></defs><g id="Capa_2" data-name="Capa 2"><g id="Capa_1-2" data-name="Capa 1"><path class="cls-1" d="M120.23,14.37a7.1,7.1,0,0,0,6.36-3.19l-2.67-1.73a4.43,4.43,0,0,1-3.69,1.9,3.87,3.87,0,0,1-3.84-4.17A3.85,3.85,0,0,1,120.23,3a4.46,4.46,0,0,1,3.69,1.89l2.67-1.75A7.11,7.11,0,0,0,120.23,0a7,7,0,0,0-7.3,7.18,7,7,0,0,0,7.3,7.19Z"/><path class="cls-1" d="M133.06,14.34c3.11,0,5.64-2,5.64-5.26a5.64,5.64,0,0,0-11.26,0c0,3.23,2.51,5.26,5.62,5.26Zm0-7.86a2.53,2.53,0,0,1,2.55,2.6,2.54,2.54,0,1,1-5.08,0A2.54,2.54,0,0,1,133.06,6.48Z"/><path class="cls-1" d="M140.25,14.08h3.25V8.45a4.59,4.59,0,0,1,2.79-1.71.75.75,0,0,1,.3,0c.49.1.82.5.82,1.36v5.94h3.2V6.9a2.87,2.87,0,0,0-2.94-3.11A5.47,5.47,0,0,0,143.5,6v-2h-3.25Z"/><path class="cls-1" d="M157.53,6.48a2.41,2.41,0,0,1,2.34,2.6,2.4,2.4,0,0,1-2.34,2.59,2.33,2.33,0,0,1-2.31-2.59,2.33,2.33,0,0,1,2.31-2.6Zm-.84,7.86a4,4,0,0,0,3.18-1.54v.91c0,1.64-1.14,2.11-2.52,2.11a9.06,9.06,0,0,1-3.25-.73l-.92,2.13a11,11,0,0,0,4.54,1c3.44,0,5.41-2,5.41-5.43V4.07h-3.26V5.4a4,4,0,0,0-3.18-1.61c-2.88,0-4.56,2.62-4.56,5.29s1.64,5.26,4.56,5.26Z"/><path class="cls-1" d="M165.16,4.07v10h3.25v-3.9A2.88,2.88,0,0,1,171.59,7a5.08,5.08,0,0,1,.86,0V3.79a5.15,5.15,0,0,0-2.31.49A3.37,3.37,0,0,0,168.41,6v-2Z"/><path class="cls-1" d="M176.7,7.79a1.65,1.65,0,0,1,.53-1.26,2.61,2.61,0,0,1,1.62-.59,2.38,2.38,0,0,1,1.68.59,1.79,1.79,0,0,1,.52,1.26Zm2.36,6.55A6,6,0,0,0,184,12.19l-2.15-1.55a3.09,3.09,0,0,1-2.62,1.15,2.42,2.42,0,0,1-2.46-2.13h7.58a4.88,4.88,0,0,0-1.24-4.42,6,6,0,0,0-4.12-1.45c-3.27,0-5.59,1.94-5.59,5.29s2.41,5.26,5.71,5.26Z"/><path class="cls-1" d="M188.13,4.14a3.82,3.82,0,0,0-1.84,1.31A2.35,2.35,0,0,0,186,7.56,2.76,2.76,0,0,0,187.17,9a8.33,8.33,0,0,0,1,.56c.33.12.66.21,1,.33a6.23,6.23,0,0,0,1,.3c.35.12.65.21,1,.33a1.17,1.17,0,0,1,.58.4.5.5,0,0,1,.14.58.65.65,0,0,1-.47.42,1.84,1.84,0,0,1-.84.14,14.32,14.32,0,0,1-1.73-.35,13.29,13.29,0,0,1-2.15-1l-1.36,2a8.4,8.4,0,0,0,5.24,1.68c1.47,0,3.51-.54,4.24-2a2.47,2.47,0,0,0,.13-2.25,4.11,4.11,0,0,0-2.43-1.94c-.37-.14-.75-.26-1.14-.38a19.18,19.18,0,0,1-2-.7.59.59,0,0,1-.31-.35.55.55,0,0,1,0-.4.52.52,0,0,1,.45-.3,1.39,1.39,0,0,1,.68-.09,8.63,8.63,0,0,1,3.2,1l1.34-2a9.75,9.75,0,0,0-4.58-1.12,6.78,6.78,0,0,0-2.09.35Z"/><path class="cls-1" d="M201.86,14.34c3.11,0,5.63-2,5.63-5.26a5.64,5.64,0,0,0-11.25,0c0,3.23,2.51,5.26,5.62,5.26Zm0-7.86a2.53,2.53,0,0,1,2.55,2.6,2.54,2.54,0,1,1-5.08,0A2.54,2.54,0,0,1,201.86,6.48Z"/><rect class="cls-2" x="113.51" y="20.31" width="3.44" height="13.83"/><path class="cls-1" d="M119.07,34.14h3.25V28.5a4.64,4.64,0,0,1,2.79-1.71.61.61,0,0,1,.3.05c.49.09.82.49.82,1.36v5.94h3.2V27a2.87,2.87,0,0,0-3-3.11,5.48,5.48,0,0,0-4.16,2.24v-2h-3.25Z"/><path class="cls-1" d="M131.27,21.18V30.6a4,4,0,0,0,1,3,3.92,3.92,0,0,0,2.69.82,11.58,11.58,0,0,0,2.67-.31l-.37-2.43a4.28,4.28,0,0,1-1.27.21,1.48,1.48,0,0,1-1-.23,1.75,1.75,0,0,1-.49-1.45V26.63h3.07v-2.5h-3.07V21.18Z"/><path class="cls-1" d="M141.94,27.85a1.68,1.68,0,0,1,.54-1.27A2.54,2.54,0,0,1,144.1,26a2.42,2.42,0,0,1,1.68.58,1.81,1.81,0,0,1,.52,1.27Zm2.37,6.55a6,6,0,0,0,4.89-2.16l-2.15-1.54a3.13,3.13,0,0,1-2.63,1.15A2.44,2.44,0,0,1,142,29.72h7.57a4.87,4.87,0,0,0-1.23-4.42,6,6,0,0,0-4.12-1.45c-3.28,0-5.59,1.94-5.59,5.28s2.41,5.27,5.71,5.27Z"/><path class="cls-1" d="M151.2,24.13v10h3.25V30.23a2.88,2.88,0,0,1,3.19-3.13,5.08,5.08,0,0,1,.86,0V23.84a5,5,0,0,0-2.31.5,3.38,3.38,0,0,0-1.74,1.75v-2Z"/><path class="cls-1" d="M159.84,34.14h3.25V28.5a4.64,4.64,0,0,1,2.79-1.71.6.6,0,0,1,.3.05c.49.09.82.49.82,1.36v5.94h3.2V27a2.87,2.87,0,0,0-2.94-3.11,5.48,5.48,0,0,0-4.17,2.24v-2h-3.25Z"/><path class="cls-1" d="M177.12,26.53a2.43,2.43,0,0,1,2.34,2.6,2.34,2.34,0,1,1-4.65,0,2.41,2.41,0,0,1,2.31-2.6Zm-.86,7.87a3.85,3.85,0,0,0,3.2-1.57v1.31h3.23v-10h-3.23v1.33a4.12,4.12,0,0,0-3.2-1.62c-2.88,0-4.54,2.65-4.54,5.29s1.64,5.27,4.54,5.27Z"/><path class="cls-1" d="M190,34.4a6,6,0,0,0,4.89-2.16l-2.13-1.54a3.15,3.15,0,0,1-2.6,1.15,2.65,2.65,0,0,1-2.64-2.72,2.69,2.69,0,0,1,2.64-2.71,3.66,3.66,0,0,1,1.57.3,5.23,5.23,0,0,1,1,.87l2.13-1.52A5.82,5.82,0,0,0,190,23.85c-3.25,0-5.71,1.94-5.71,5.28s2.51,5.27,5.71,5.27Z"/><path class="cls-1" d="M197.75,23.26a1.78,1.78,0,0,0,1.91-1.69,1.89,1.89,0,0,0-3.76,0,1.77,1.77,0,0,0,1.85,1.69Zm-1.62.87v10h3.28v-10Z"/><path class="cls-1" d="M206.47,34.4c3.11,0,5.63-2,5.63-5.27a5.64,5.64,0,0,0-11.25,0c0,3.23,2.51,5.27,5.62,5.27Zm0-7.87a2.53,2.53,0,0,1,2.55,2.6,2.54,2.54,0,1,1-5.08,0A2.54,2.54,0,0,1,206.47,26.53Z"/><path class="cls-1" d="M213.66,34.14h3.25V28.5a4.64,4.64,0,0,1,2.78-1.71.63.63,0,0,1,.31.05c.49.09.82.49.82,1.36v5.94H224V27a2.87,2.87,0,0,0-3-3.11,5.48,5.48,0,0,0-4.16,2.24v-2h-3.25Z"/><path class="cls-1" d="M230.94,26.53a2.43,2.43,0,0,1,2.34,2.6,2.34,2.34,0,1,1-4.66,0,2.41,2.41,0,0,1,2.32-2.6Zm-.87,7.87a4.35,4.35,0,0,0,2-.52,4.67,4.67,0,0,0,1.17-1.05v1.31h3.23v-10h-3.23v1.33a4.12,4.12,0,0,0-3.21-1.62c-2.87,0-4.53,2.65-4.53,5.29s1.63,5.27,4.53,5.27Z"/><rect class="cls-2" x="238.52" y="20.31" width="3.25" height="13.83"/><path class="cls-1" d="M256.49,26.53a2.07,2.07,0,0,1,1.61.73,2.68,2.68,0,0,1,.7,1.87,2.58,2.58,0,0,1-.7,1.87,2,2,0,0,1-1.61.71,2.34,2.34,0,0,1-2.34-2.58,2.38,2.38,0,0,1,2.34-2.6Zm-.89,7.87a4.45,4.45,0,0,0,2-.52,4.16,4.16,0,0,0,1.16-1.05v1.31H262V20.31H258.8v5.15a4,4,0,0,0-3.2-1.62c-2.85,0-4.51,2.67-4.51,5.29s1.63,5.27,4.51,5.27Z"/><path class="cls-1" d="M267,27.85a1.67,1.67,0,0,1,.53-1.27,2.54,2.54,0,0,1,1.62-.58,2.42,2.42,0,0,1,1.68.58,1.81,1.81,0,0,1,.52,1.27Zm2.36,6.55a6,6,0,0,0,4.89-2.16l-2.15-1.54a3.12,3.12,0,0,1-2.62,1.15A2.44,2.44,0,0,1,267,29.72h7.58a4.87,4.87,0,0,0-1.24-4.42,6,6,0,0,0-4.12-1.45c-3.27,0-5.59,1.94-5.59,5.28s2.41,5.27,5.71,5.27Z"/><rect class="cls-2" x="113.51" y="40.37" width="3.44" height="13.83"/><path class="cls-1" d="M119.07,54.19h3.25V48.56a4.59,4.59,0,0,1,2.79-1.71.75.75,0,0,1,.3,0c.49.1.82.5.82,1.36v5.94h3.2V47a2.87,2.87,0,0,0-3-3.11,5.46,5.46,0,0,0-4.16,2.25v-2h-3.25Z"/><path class="cls-1" d="M132.17,46.71v7.48h3.25V46.71h3.14V44.18h-3.09c0-.14,0-.42,0-.58a1.33,1.33,0,0,1,.35-.71,1.1,1.1,0,0,1,.8-.25,3.79,3.79,0,0,1,1.57.23l.56-2.39a9.65,9.65,0,0,0-2.48-.37c-2.76,0-4.12,1.28-4.12,4.07h-1.4v2.53Z"/><path class="cls-1" d="M145,54.45c3.11,0,5.64-2,5.64-5.26a5.64,5.64,0,0,0-11.26,0c0,3.22,2.51,5.26,5.62,5.26Zm0-7.86a2.53,2.53,0,0,1,2.55,2.6,2.54,2.54,0,1,1-5.08,0A2.54,2.54,0,0,1,145,46.59Z"/><path class="cls-1" d="M152.19,44.18v10h3.25v-3.9a2.88,2.88,0,0,1,3.18-3.14,5.26,5.26,0,0,1,.87.05V43.9a5.2,5.2,0,0,0-2.32.49,3.41,3.41,0,0,0-1.73,1.76v-2Z"/><path class="cls-1" d="M160.83,54.19h3.22V48.56a8.12,8.12,0,0,1,.92-1,2.11,2.11,0,0,1,1.42-.71c.47,0,.8.38.8,1.38v5.92h3.25V48.56c.28-.31.61-.71,1-1.06a2.18,2.18,0,0,1,1.36-.61c.47,0,.79.38.79,1.38v5.92h3.26V47A2.81,2.81,0,0,0,174,43.9c-1.75,0-2.66,1.12-3.62,2.36a4.22,4.22,0,0,0-.31-.82,2.55,2.55,0,0,0-2.43-1.54c-1.64,0-2.67,1.05-3.56,2.25v-2h-3.22Z"/><path class="cls-1" d="M183.75,46.59a2.41,2.41,0,0,1,2.31,2.6,2.34,2.34,0,1,1-4.65,0,2.41,2.41,0,0,1,2.34-2.6Zm-2.5-3.25h2.05l3.09-3.6h-3.6l-1.54,3.6Zm1.63,11.11a4.23,4.23,0,0,0,2-.52,3.7,3.7,0,0,0,1.17-1v1.31h3.23v-10h-3.23v1.33a4,4,0,0,0-3.18-1.61c-2.9,0-4.54,2.64-4.54,5.29s1.64,5.26,4.54,5.26Z"/><path class="cls-1" d="M191.21,41.23v9.43a4,4,0,0,0,1,3,3.87,3.87,0,0,0,2.69.82,12.18,12.18,0,0,0,2.67-.3l-.38-2.44a4.16,4.16,0,0,1-1.26.21,1.36,1.36,0,0,1-1-.23,1.71,1.71,0,0,1-.49-1.45V46.68h3.06v-2.5h-3.06v-3Z"/><path class="cls-1" d="M200.73,43.31a1.77,1.77,0,0,0,1.91-1.68,1.89,1.89,0,0,0-3.76,0,1.76,1.76,0,0,0,1.85,1.68Zm-1.62.87v10h3.28v-10Z"/><path class="cls-1" d="M209.54,54.45a6,6,0,0,0,4.89-2.15l-2.13-1.55a3.15,3.15,0,0,1-2.6,1.15,2.64,2.64,0,0,1-2.64-2.71,2.69,2.69,0,0,1,2.64-2.71,3.52,3.52,0,0,1,1.57.3,4.85,4.85,0,0,1,1,.86l2.13-1.52a5.84,5.84,0,0,0-4.89-2.22c-3.25,0-5.71,1.94-5.71,5.29s2.51,5.26,5.71,5.26Z"/><path class="cls-1" d="M220.79,46.59a2.42,2.42,0,0,1,2.34,2.6,2.34,2.34,0,1,1-4.65,0,2.4,2.4,0,0,1,2.31-2.6Zm-.86,7.86a4.34,4.34,0,0,0,2-.52,4.19,4.19,0,0,0,1.17-1v1.31h3.23v-10h-3.23v1.33a4.11,4.11,0,0,0-3.2-1.61c-2.88,0-4.54,2.64-4.54,5.29s1.64,5.26,4.54,5.26Z"/><path class="cls-1" d="M239.37,54.33c-.36.8-.78,1.43-1.74,1.43a6.57,6.57,0,0,1-1.66-.3l-.53,2.5a7.09,7.09,0,0,0,2.19.33c3,0,4.05-1.57,5-4.1l4.07-10h-3.36L241,50.8l-2.39-6.62H235.2Z"/><path class="cls-1" d="M113.65,62.64a3.39,3.39,0,0,0-.11,2.7,4.34,4.34,0,0,0,2.73,2.52c.38.14.75.31,1.12.43a8.45,8.45,0,0,1,1.06.39,8,8,0,0,1,1.14.49,2.42,2.42,0,0,1,.87.59,1,1,0,0,1,.26,1.08,1.08,1.08,0,0,1-.75.53,1.77,1.77,0,0,1-.75.12,8,8,0,0,1-4.4-1.87l-2,2.62a9,9,0,0,0,6.27,2.29A5.59,5.59,0,0,0,124,72.12a3.45,3.45,0,0,0,.07-3.63,5.65,5.65,0,0,0-2.9-2.27c-.42-.18-.84-.35-1.29-.51a20.4,20.4,0,0,1-2.17-.86,1.28,1.28,0,0,1-.59-.5.68.68,0,0,1-.09-.65,1.3,1.3,0,0,1,.52-.52,3,3,0,0,1,.9-.14,8.31,8.31,0,0,1,3.8,1.31l1.8-2.69a9,9,0,0,0-5.55-1.5c-1.85,0-3.93.73-4.82,2.48Z"/><path class="cls-1" d="M127.6,63.37a1.79,1.79,0,0,0,1.92-1.69,1.9,1.9,0,0,0-3.77,0,1.77,1.77,0,0,0,1.85,1.69Zm-1.61.86v10h3.27v-10Z"/><path class="cls-1" d="M133.31,64.31a3.77,3.77,0,0,0-1.85,1.31,2.33,2.33,0,0,0-.26,2.1,2.7,2.7,0,0,0,1.15,1.4,7.11,7.11,0,0,0,1,.57c.33.12.65.21,1,.32a6.61,6.61,0,0,0,1,.31l1,.32a1.21,1.21,0,0,1,.58.4.52.52,0,0,1,.15.59.67.67,0,0,1-.47.42,2,2,0,0,1-.84.14,14.1,14.1,0,0,1-1.74-.35,15.16,15.16,0,0,1-2.15-1l-1.35,2a8.4,8.4,0,0,0,5.24,1.69c1.47,0,3.5-.54,4.23-2a2.48,2.48,0,0,0,.14-2.24,4.13,4.13,0,0,0-2.43-2c-.38-.14-.75-.26-1.15-.37a17.67,17.67,0,0,1-2-.71.57.57,0,0,1-.31-.34.47.47,0,0,1,0-.4.51.51,0,0,1,.45-.31,1.36,1.36,0,0,1,.67-.09,8.68,8.68,0,0,1,3.21,1l1.33-2A9.73,9.73,0,0,0,135.39,64a6.39,6.39,0,0,0-2.08.36Z"/><path class="cls-1" d="M141.78,61.29v9.42a4,4,0,0,0,1,3,3.92,3.92,0,0,0,2.69.82,11.58,11.58,0,0,0,2.67-.31l-.37-2.43a4.28,4.28,0,0,1-1.27.21,1.43,1.43,0,0,1-1-.24A1.71,1.71,0,0,1,145,70.3V66.74h3.06V64.23H145V61.29Z"/><path class="cls-1" d="M152.45,68a1.68,1.68,0,0,1,.54-1.27,2.54,2.54,0,0,1,1.62-.58,2.42,2.42,0,0,1,1.68.58,1.86,1.86,0,0,1,.52,1.27Zm2.37,6.55a6,6,0,0,0,4.89-2.16l-2.16-1.54A3.1,3.1,0,0,1,154.93,72a2.44,2.44,0,0,1-2.45-2.13h7.57a4.87,4.87,0,0,0-1.23-4.42A6,6,0,0,0,154.7,64c-3.28,0-5.59,1.94-5.59,5.28s2.41,5.27,5.71,5.27Z"/><path class="cls-1" d="M161.71,74.25h3.23V68.61a9.83,9.83,0,0,1,.91-1,2.11,2.11,0,0,1,1.43-.7c.47,0,.79.37.79,1.38v5.92h3.26V68.61c.28-.3.61-.7,1-1a2.08,2.08,0,0,1,1.36-.61c.47,0,.79.38.79,1.38v5.92h3.25V67A2.8,2.8,0,0,0,174.86,64c-1.76,0-2.67,1.12-3.63,2.36a4.65,4.65,0,0,0-.3-.82A2.56,2.56,0,0,0,168.49,64c-1.63,0-2.66,1.05-3.55,2.24v-2h-3.23Z"/><path class="cls-1" d="M184.63,66.64a2.43,2.43,0,0,1,2.34,2.6,2.34,2.34,0,1,1-4.65,0,2.41,2.41,0,0,1,2.31-2.6Zm-.86,7.87a3.85,3.85,0,0,0,3.2-1.57v1.31h3.23v-10H187v1.34a4.12,4.12,0,0,0-3.2-1.62c-2.88,0-4.54,2.65-4.54,5.29s1.64,5.27,4.54,5.27Z"/><path class="cls-1" d="M194.39,64.31a3.7,3.7,0,0,0-1.84,1.31,2.33,2.33,0,0,0-.26,2.1,2.72,2.72,0,0,0,1.14,1.4,8.36,8.36,0,0,0,1,.57c.33.12.66.21,1,.32a6.3,6.3,0,0,0,1,.31l1,.32a1.26,1.26,0,0,1,.58.4.51.51,0,0,1,.14.59.65.65,0,0,1-.46.42,2.08,2.08,0,0,1-.85.14A8.42,8.42,0,0,1,193,70.81l-1.36,2a8.4,8.4,0,0,0,5.24,1.69c1.48,0,3.51-.54,4.24-2a2.48,2.48,0,0,0,.14-2.24,4.15,4.15,0,0,0-2.44-2c-.37-.14-.75-.26-1.14-.37a17.12,17.12,0,0,1-2-.71.55.55,0,0,1-.3-.34.47.47,0,0,1,0-.4.5.5,0,0,1,.44-.31,1.41,1.41,0,0,1,.68-.09,8.74,8.74,0,0,1,3.21,1l1.33-2A9.73,9.73,0,0,0,196.48,64a6.5,6.5,0,0,0-2.09.36Z"/><path class="cls-1" d="M43.53,31.58h-2.9a2.5,2.5,0,0,0,0,5h2.9v-5Zm47,20.35a5,5,0,1,1,.12,5.24H78.33L85,63.79h5.61a5,5,0,1,1,0,5.24H82.88l-12-11.86H56.5a5,5,0,0,1-8.37,0c-1.55,0-6-.1-7.63-.1a23.1,23.1,0,0,1,0-46.19h2.78v5.24H39.35l-.22,0h0l-.23,0h0l-.22,0h0l-.23,0h0a17.86,17.86,0,0,0,.15,35.49l.75.06.46,0H42.4c.83,0,4.62,0,5.45,0,.25,0,.18,0,.29-.12a4.9,4.9,0,0,1,4.18-2.25,5,5,0,0,1,4.3,2.47ZM55,25.89a5,5,0,1,0-5.25,0v12.8A2.59,2.59,0,0,1,49,40.57h0a2.59,2.59,0,0,1-1.84.77v5.25a7.82,7.82,0,0,0,5.54-2.31h0A7.87,7.87,0,0,0,55,38.73V25.89Zm3.55-14.61L55,7l3.39-4.07a1.58,1.58,0,0,0,.34-1,1.67,1.67,0,0,0-.14-.67,1.68,1.68,0,0,0-.43-.54A1.52,1.52,0,0,0,56,1l-3,3.6L50.05,1a1.57,1.57,0,0,0-2.78,1,1.47,1.47,0,0,0,.37,1L51,7l-3.56,4.27a1.56,1.56,0,0,0-.37,1,1.47,1.47,0,0,0,.15.67,1.5,1.5,0,0,0,.43.55,1.48,1.48,0,0,0,.46.26,1.51,1.51,0,0,0,.53.09,1.53,1.53,0,0,0,.67-.15,1.56,1.56,0,0,0,.54-.43L53,9.42l3.15,3.83a1.43,1.43,0,0,0,1.2.58,1.6,1.6,0,0,0,.53-.09,1.75,1.75,0,0,0,.46-.26,1.58,1.58,0,0,0,.48-1.74,1.72,1.72,0,0,0-.25-.46Zm30.18,2.4a1.56,1.56,0,0,0,1.57-1.57V2a1.5,1.5,0,0,0-.12-.6,1.43,1.43,0,0,0-.34-.51,1.53,1.53,0,0,0-.5-.34,1.74,1.74,0,0,0-.61-.11,1.63,1.63,0,0,0-.59.11,1.57,1.57,0,0,0-.51.34,1.43,1.43,0,0,0-.34.51,1.5,1.5,0,0,0-.12.6V12.11a1.5,1.5,0,0,0,.12.6,1.63,1.63,0,0,0,.34.51,1.57,1.57,0,0,0,.51.34,1.45,1.45,0,0,0,.59.12Zm-9.29.13a1.33,1.33,0,0,0,.45-.06,1.52,1.52,0,0,0,.43-.2,1.45,1.45,0,0,0,.34-.31,1.47,1.47,0,0,0,.24-.4L85.2,2.55a1.14,1.14,0,0,0,.09-.26,1.58,1.58,0,0,0,0-.32,1.62,1.62,0,0,0-.11-.58,1.74,1.74,0,0,0-.32-.51,1.67,1.67,0,0,0-.51-.37,1.59,1.59,0,0,0-.62-.12,1.33,1.33,0,0,0-.45.07,2,2,0,0,0-.42.19,1.52,1.52,0,0,0-.35.31,1.34,1.34,0,0,0-.23.4l-2.88,7.1-2.88-7.1A1.43,1.43,0,0,0,76,.63a1.55,1.55,0,0,0-.84-.24l-.29,0L74.52.5h0a1.9,1.9,0,0,0-.39.23,2,2,0,0,0-.3.35,1.53,1.53,0,0,0-.19.41,1.74,1.74,0,0,0-.06.45,1.41,1.41,0,0,0,0,.28,1.11,1.11,0,0,0,.08.3L78,12.84a1.47,1.47,0,0,0,.24.4,1.5,1.5,0,0,0,.35.31,1.46,1.46,0,0,0,.44.2,1.78,1.78,0,0,0,.47.06Zm-8-2.53L67.86,7l3.39-4.07a1.58,1.58,0,0,0,.34-1A1.57,1.57,0,0,0,71,.74a1.59,1.59,0,0,0-1.67-.2,1.43,1.43,0,0,0-.52.43l-3,3.6L62.93,1a1.57,1.57,0,0,0-2.78,1,1.47,1.47,0,0,0,.37,1L63.88,7l-3.55,4.27a1.51,1.51,0,0,0-.37,1,1.61,1.61,0,0,0,.57,1.22,1.75,1.75,0,0,0,.46.26,1.6,1.6,0,0,0,.53.09,1.47,1.47,0,0,0,.67-.15,1.5,1.5,0,0,0,.55-.43l3.13-3.83L69,13.25a1.43,1.43,0,0,0,1.19.58,1.51,1.51,0,0,0,.53-.09,1.48,1.48,0,0,0,.46-.26,1.51,1.51,0,0,0,.58-1.22,1.54,1.54,0,0,0-.09-.52,1.51,1.51,0,0,0-.26-.46ZM66.55,63.9a5,5,0,1,1-4.22,7.66c-13.55.29-19.08.16-24.61.72-7,.71-12.56,1.89-20.82,1.89a7.68,7.68,0,0,1-7.42-6.61l-1.16-10L1.63,56.18a2.11,2.11,0,0,1-1.63-2V52.53L7.35,39.06A32.84,32.84,0,0,1,17.78,9.29C25,2.65,33.57,0,43.25.46c0,1.75,0,3.31,0,5.06-3,.24-5,.19-7.07.45a28.56,28.56,0,0,0-5.33,1.38l-.11,0a29,29,0,0,0-16.56,16.2,28,28,0,0,0-2,10.39,27.5,27.5,0,0,0,.14,2.88h0v0a30.31,30.31,0,0,0,3.11,10.26h0A28.66,28.66,0,0,0,27.16,59a30.05,30.05,0,0,0,14,3.36h5.38v-.09l0,.09c1.88,0,3.53,0,3.62,0,.34.12,4.77,3.79,5,3.87l7.11,0a5,5,0,0,1,4.24-2.35ZM43.28,26.61H40.49a7.37,7.37,0,0,0,0,14.73h2.79v5.25H40.49a12.61,12.61,0,0,1,0-25.22h2.79v5.24Zm44.6,6.18h3.83a2.5,2.5,0,0,1,0,5H80.23a5,5,0,0,0-4.29-2.5,5,5,0,1,0,0,10,5,5,0,0,0,4.29-2.5H91.71a7.49,7.49,0,1,0,0-15H79.31a2.5,2.5,0,1,1,0-5H91.66a5,5,0,1,0,0-5H79.31a7.49,7.49,0,0,0,0,15h8.57Zm-19.68-11v-5a7.49,7.49,0,0,0-7.49,7.49V36.64a5,5,0,1,0,5,0V24.29a2.5,2.5,0,0,1,2.5-2.5ZM26.49,9.36h0l.07,0,.17-.1Z"/></g></g></svg>